<?xml version="1.0" standalone="no"?>
<!DOCTYPE svg PUBLIC "-//W3C//DTD SVG 20010904//EN"
 "http://www.w3.org/TR/2001/REC-SVG-20010904/DTD/svg10.dtd">
<svg version="1.0" xmlns="http://www.w3.org/2000/svg"
 width="1024.000000pt" height="1024.000000pt" viewBox="0 0 1024.000000 1024.000000"
 preserveAspectRatio="xMidYMid meet">

<g transform="translate(0.000000,1024.000000) scale(0.100000,-0.100000)"
fill="#000000" stroke="none">
<path d="M2215 6391 c-24 -10 -245 -359 -245 -387 0 -11 38 -83 84 -161 46
-77 116 -198 157 -268 40 -70 79 -130 87 -132 21 -8 40 17 157 207 60 96 127
204 150 240 147 230 285 460 285 474 0 9 -12 21 -26 26 -31 12 -620 12 -649 1z"/>
<path d="M632 6378 c-7 -7 -12 -16 -12 -22 0 -5 6 -3 13 6 6 9 23 19 37 21
l25 4 -25 2 c-15 0 -31 -4 -38 -11z"/>
<path d="M778 6383 c34 -2 90 -2 125 0 34 2 6 3 -63 3 -69 0 -97 -1 -62 -3z"/>
<path d="M1053 6383 c9 -2 23 -2 30 0 6 3 -1 5 -18 5 -16 0 -22 -2 -12 -5z"/>
<path d="M1153 6383 c20 -2 54 -2 75 0 20 2 3 4 -38 4 -41 0 -58 -2 -37 -4z"/>
<path d="M1280 6386 c0 -2 8 -10 18 -17 15 -13 16 -12 3 4 -13 16 -21 21 -21
13z"/>
<path d="M645 6306 c10 -14 19 -26 22 -26 7 0 -17 39 -28 46 -6 3 -3 -5 6 -20z"/>
<path d="M1350 6281 c0 -6 4 -13 10 -16 6 -3 7 1 4 9 -7 18 -14 21 -14 7z"/>
<path d="M695 6226 c10 -14 19 -26 22 -26 7 0 -17 39 -28 46 -6 3 -3 -5 6 -20z"/>
<path d="M725 6180 c3 -5 8 -10 11 -10 2 0 4 5 4 10 0 6 -5 10 -11 10 -5 0 -7
-4 -4 -10z"/>
<path d="M753 6135 c9 -16 23 -39 32 -50 9 -11 7 -2 -6 20 -27 49 -47 72 -26
30z"/>
<path d="M1450 6121 c5 -11 15 -23 21 -27 6 -3 3 5 -6 20 -20 30 -30 35 -15 7z"/>
<path d="M8032 6073 c-68 -33 -104 -113 -83 -185 44 -146 242 -155 296 -13 51
131 -88 260 -213 198z"/>
<path d="M1500 6041 c5 -11 15 -23 21 -27 6 -3 3 5 -6 20 -20 30 -30 35 -15 7z"/>
<path d="M1566 5932 c-3 -5 1 -9 9 -9 8 0 12 4 9 9 -3 4 -7 8 -9 8 -2 0 -6 -4
-9 -8z"/>
<path d="M900 5900 c6 -11 13 -20 16 -20 2 0 0 9 -6 20 -6 11 -13 20 -16 20
-2 0 0 -9 6 -20z"/>
<path d="M1610 5870 c6 -11 13 -20 16 -20 2 0 0 9 -6 20 -6 11 -13 20 -16 20
-2 0 0 -9 6 -20z"/>
<path d="M945 5826 c10 -14 19 -26 22 -26 7 0 -17 39 -28 46 -6 3 -3 -5 6 -20z"/>
<path d="M1751 5643 c7 -12 15 -20 18 -17 3 2 -3 12 -13 22 -17 16 -18 16 -5
-5z"/>
<path d="M3532 5589 c-106 -18 -155 -58 -191 -154 -36 -95 -41 -199 -41 -797
0 -511 2 -578 16 -592 20 -20 171 -23 197 -3 14 10 17 37 19 182 l3 170 230 6
c199 6 238 9 289 28 80 29 117 53 176 118 59 64 94 128 115 210 22 82 21 432
-1 516 -39 153 -123 249 -262 299 -50 18 -83 21 -277 24 -121 1 -244 -1 -273
-7z m507 -239 c30 -17 52 -40 68 -69 22 -42 23 -53 23 -265 0 -244 -6 -272
-66 -328 -55 -51 -96 -61 -262 -66 -124 -3 -161 -1 -195 12 -71 27 -72 28 -75
326 -4 297 0 339 31 376 32 37 72 43 262 41 161 -2 172 -3 214 -27z"/>
<path d="M5000 5589 c-170 -25 -287 -118 -352 -280 -20 -48 -23 -77 -26 -271
-4 -237 3 -287 55 -396 51 -104 161 -191 284 -223 25 -6 162 -13 320 -16 331
-5 311 -12 303 110 -3 45 -7 87 -9 94 -3 8 -80 12 -282 15 -310 4 -320 6 -386
73 -41 42 -58 85 -60 153 l-2 47 412 3 413 2 6 26 c11 42 -4 293 -19 351 -62
221 -219 325 -491 322 -61 -1 -136 -5 -166 -10z m311 -224 c83 -30 129 -97
129 -190 l0 -55 -300 0 c-341 0 -310 -10 -289 91 18 86 86 146 179 162 67 11
240 6 281 -8z"/>
<path d="M6307 5589 c-54 -13 -112 -44 -135 -74 -11 -14 -22 -25 -25 -25 -3 0
-7 21 -9 48 l-3 47 -105 0 -105 0 -3 -580 c-2 -536 -1 -581 15 -592 23 -17
174 -17 196 0 15 11 17 51 19 388 l3 376 35 69 c30 58 43 73 85 96 44 24 61
28 142 28 119 0 123 4 123 115 0 110 -5 115 -113 114 -45 -1 -99 -5 -120 -10z"/>
<path d="M1731 5583 c-1 -17 16 -25 25 -12 4 7 3 9 -4 5 -5 -3 -13 0 -15 6 -4
9 -6 10 -6 1z"/>
<path d="M6675 5581 c-3 -5 -1 -20 5 -33 5 -13 57 -156 115 -318 250 -696 288
-796 307 -812 16 -15 39 -18 123 -18 83 0 107 3 123 18 11 9 41 75 67 147 26
72 119 325 207 563 88 238 157 439 154 447 -5 13 -25 15 -118 13 l-113 -3
-117 -330 c-65 -181 -134 -379 -154 -440 -31 -93 -54 -145 -54 -123 0 6 -285
828 -301 871 l-11 27 -114 0 c-62 0 -115 -4 -119 -9z"/>
<path d="M7997 5583 c-4 -3 -7 -266 -7 -584 l0 -578 21 -12 c32 -16 187 -8
199 11 11 16 14 1127 4 1154 -5 13 -24 16 -108 16 -57 0 -106 -3 -109 -7z"/>
<path d="M8607 5583 c-3 -5 -7 -50 -8 -102 -2 -72 0 -95 12 -102 8 -5 119 -9
259 -7 206 1 250 -1 275 -14 33 -18 67 -52 83 -83 13 -27 26 -128 16 -123 -82
40 -82 40 -293 36 -242 -5 -284 -16 -376 -99 -67 -62 -102 -132 -113 -224 -27
-220 55 -384 220 -442 46 -15 86 -18 293 -18 161 0 253 4 281 12 92 28 164 99
201 196 20 53 30 466 14 605 -13 121 -51 201 -126 270 -98 90 -124 96 -451
100 -155 2 -284 0 -287 -5z m589 -642 c42 -26 58 -75 52 -165 -9 -140 -38
-156 -280 -156 -191 0 -221 7 -262 63 -17 23 -21 43 -21 105 0 65 4 82 24 111
39 54 65 60 271 61 165 0 188 -2 216 -19z"/>
<path d="M1686 5484 c-9 -24 -2 -26 12 -4 7 11 8 20 3 20 -5 0 -12 -7 -15 -16z"/>
<path d="M1166 5477 c3 -10 9 -15 12 -12 3 3 0 11 -7 18 -10 9 -11 8 -5 -6z"/>
<path d="M1641 5403 c-10 -26 -10 -27 4 -9 8 11 15 23 15 28 0 15 -7 8 -19
-19z"/>
<path d="M1216 5397 c3 -10 9 -15 12 -12 3 3 0 11 -7 18 -10 9 -11 8 -5 -6z"/>
<path d="M1594 5330 c-15 -22 -25 -42 -23 -44 2 -2 16 16 31 40 34 55 28 58
-8 4z"/>
<path d="M1266 5317 c3 -10 9 -15 12 -12 3 3 0 11 -7 18 -10 9 -11 8 -5 -6z"/>
<path d="M1300 5261 c0 -10 19 -25 25 -20 1 2 -3 10 -11 17 -8 7 -14 8 -14 3z"/>
<path d="M1539 5243 l-24 -28 28 24 c25 23 32 31 24 31 -2 0 -14 -12 -28 -27z"/>
<path d="M1393 5223 c20 -2 54 -2 75 0 20 2 3 4 -38 4 -41 0 -58 -2 -37 -4z"/>
<path d="M1987 5001 c-23 -8 -247 -359 -247 -385 0 -17 246 -424 405 -668 l60
-93 338 -3 c379 -3 371 -4 330 67 -44 78 -655 1047 -673 1068 -18 21 -28 23
-107 22 -49 0 -96 -4 -106 -8z"/>
<path d="M1184 4782 c-24 -15 -558 -878 -558 -902 l-1 -25 325 -3 c179 -1 334
0 345 2 11 3 38 34 60 68 22 35 72 114 112 175 40 62 73 122 73 134 0 11 -71
139 -157 282 -145 241 -169 277 -183 277 -3 0 -10 -4 -16 -8z"/>
<path d="M9496 4569 c-44 -52 -33 -125 24 -154 75 -39 150 9 150 96 0 48 -47
89 -103 89 -38 0 -49 -5 -71 -31z"/>
</g>
</svg>
