<?xml version="1.0" standalone="no"?>
<!DOCTYPE svg PUBLIC "-//W3C//DTD SVG 20010904//EN"
 "http://www.w3.org/TR/2001/REC-SVG-20010904/DTD/svg10.dtd">
<svg version="1.0" xmlns="http://www.w3.org/2000/svg"
 width="1024.000000pt" height="512.000000pt" viewBox="0 0 1024.000000 512.000000"
 preserveAspectRatio="xMidYMid meet">

<g transform="translate(0.000000,512.000000) scale(0.100000,-0.100000)"
fill="#000000" stroke="none">
<path d="M2231 3801 c-31 -6 -43 -19 -147 -186 -62 -99 -113 -189 -114 -201 0
-11 53 -110 118 -220 65 -109 135 -230 156 -267 43 -77 59 -88 86 -61 29 31
553 877 558 901 2 14 -1 25 -9 27 -22 8 -610 14 -648 7z"/>
<path d="M625 3779 c-4 -6 -5 -12 -2 -15 2 -3 7 2 10 11 7 17 1 20 -8 4z"/>
<path d="M1300 3771 c5 -11 15 -23 21 -27 6 -3 3 5 -6 20 -20 30 -30 35 -15 7z"/>
<path d="M645 3716 c10 -14 19 -26 22 -26 7 0 -17 39 -28 46 -6 3 -3 -5 6 -20z"/>
<path d="M1350 3691 c0 -6 4 -13 10 -16 6 -3 7 1 4 9 -7 18 -14 21 -14 7z"/>
<path d="M695 3636 c10 -14 19 -26 22 -26 7 0 -17 39 -28 46 -6 3 -3 -5 6 -20z"/>
<path d="M760 3530 c6 -11 13 -20 16 -20 2 0 0 9 -6 20 -6 11 -13 20 -16 20
-2 0 0 -9 6 -20z"/>
<path d="M1450 3530 c6 -11 13 -20 16 -20 2 0 0 9 -6 20 -6 11 -13 20 -16 20
-2 0 0 -9 6 -20z"/>
<path d="M8027 3479 c-71 -37 -101 -119 -72 -195 48 -127 221 -136 283 -14 12
24 22 56 22 70 0 49 -42 113 -90 138 -54 27 -93 27 -143 1z"/>
<path d="M1496 3457 c3 -10 9 -15 12 -12 3 3 0 11 -7 18 -10 9 -11 8 -5 -6z"/>
<path d="M945 3236 c10 -14 19 -26 22 -26 7 0 -17 39 -28 46 -6 3 -3 -5 6 -20z"/>
<path d="M1751 3053 c7 -12 15 -20 18 -17 3 2 -3 12 -13 22 -17 16 -18 16 -5
-5z"/>
<path d="M3537 2999 c-116 -17 -176 -75 -214 -204 -15 -53 -17 -129 -21 -687
-2 -442 0 -633 8 -648 10 -18 20 -20 98 -20 55 0 95 5 105 13 14 10 17 37 19
182 l3 170 230 6 c166 4 243 11 277 22 146 47 262 175 303 334 22 82 21 432
-1 516 -44 171 -153 277 -323 313 -74 15 -385 17 -484 3z m501 -239 c82 -46
87 -63 90 -319 4 -245 -2 -278 -53 -334 -57 -60 -94 -70 -276 -75 -192 -5
-230 5 -255 64 -17 40 -20 547 -4 605 22 78 57 89 285 86 160 -2 172 -3 213
-27z"/>
<path d="M5005 2999 c-182 -24 -318 -141 -367 -318 -24 -88 -26 -425 -3 -515
45 -170 142 -278 298 -328 54 -18 96 -21 343 -26 336 -5 316 -12 308 111 -3
45 -7 88 -10 95 -2 9 -64 12 -262 12 -302 0 -339 7 -402 71 -44 45 -61 88 -63
157 l-2 47 397 -3 c294 -3 402 -1 419 8 22 12 22 14 16 169 -3 86 -12 179 -20
206 -47 167 -160 275 -324 310 -74 16 -219 17 -328 4z m290 -220 c90 -25 144
-98 145 -196 l0 -53 -301 0 -302 0 7 49 c15 115 77 184 181 202 65 11 227 10
270 -2z"/>
<path d="M6311 3000 c-55 -12 -126 -53 -149 -88 l-17 -26 -5 54 -5 55 -99 3
c-73 2 -102 -1 -108 -10 -4 -7 -8 -270 -8 -585 0 -556 1 -573 19 -583 28 -14
184 -13 199 2 9 9 12 106 12 373 1 319 3 366 19 412 26 77 60 120 115 148 42
21 64 25 141 25 57 0 95 4 103 12 14 14 16 176 2 198 -11 18 -149 24 -219 10z"/>
<path d="M1731 2993 c-1 -17 16 -25 25 -12 4 7 3 9 -4 5 -5 -3 -13 0 -15 6 -4
9 -6 10 -6 1z"/>
<path d="M6677 2988 c-2 -7 0 -22 4 -33 5 -11 49 -135 100 -275 218 -610 310
-854 321 -862 7 -4 63 -8 124 -8 93 0 113 3 126 18 9 9 52 116 96 237 99 270
190 517 272 738 34 92 60 174 56 182 -4 12 -27 15 -116 15 -105 0 -111 -1
-120 -22 -13 -32 -263 -740 -285 -808 -15 -47 -35 -86 -35 -69 0 6 -267 778
-296 857 l-16 42 -113 0 c-82 0 -115 -3 -118 -12z"/>
<path d="M7997 2993 c-4 -3 -7 -266 -7 -583 0 -435 3 -579 12 -588 19 -19 183
-16 202 4 14 14 16 80 16 583 0 428 -3 570 -12 579 -13 13 -199 17 -211 5z"/>
<path d="M8606 2992 c-2 -4 -6 -49 -7 -101 -2 -72 0 -94 12 -102 8 -5 127 -9
265 -9 244 0 252 -1 284 -22 18 -13 41 -34 52 -48 17 -24 46 -136 36 -145 -2
-2 -23 5 -45 16 -39 19 -56 20 -245 17 -233 -5 -276 -14 -358 -79 -105 -83
-143 -169 -142 -326 1 -185 69 -298 214 -356 46 -18 79 -21 254 -25 218 -4
321 6 385 39 61 30 114 90 140 155 21 54 23 77 27 295 4 258 -5 375 -38 462
-39 104 -141 190 -264 223 -56 15 -561 21 -570 6z m583 -637 c46 -23 64 -75
59 -164 -8 -145 -35 -161 -280 -161 -190 0 -221 8 -262 63 -31 43 -34 140 -4
197 37 73 61 80 276 80 141 0 190 -3 211 -15z"/>
<path d="M1690 2899 c0 -5 5 -7 10 -4 6 3 10 8 10 11 0 2 -4 4 -10 4 -5 0 -10
-5 -10 -11z"/>
<path d="M1166 2887 c3 -10 9 -15 12 -12 3 3 0 11 -7 18 -10 9 -11 8 -5 -6z"/>
<path d="M1199 2835 c17 -33 31 -51 31 -40 0 6 -10 21 -21 35 -13 17 -17 18
-10 5z"/>
<path d="M1640 2810 c-6 -11 -8 -20 -6 -20 3 0 10 9 16 20 6 11 8 20 6 20 -3
0 -10 -9 -16 -20z"/>
<path d="M1610 2765 c-7 -9 -11 -17 -9 -20 3 -2 10 5 17 15 14 24 10 26 -8 5z"/>
<path d="M1250 2750 c6 -11 13 -20 16 -20 2 0 0 9 -6 20 -6 11 -13 20 -16 20
-2 0 0 -9 6 -20z"/>
<path d="M1576 2715 c-9 -26 -7 -32 5 -12 6 10 9 21 6 23 -2 3 -7 -2 -11 -11z"/>
<path d="M1300 2671 c0 -6 4 -13 10 -16 6 -3 7 1 4 9 -7 18 -14 21 -14 7z"/>
<path d="M1539 2653 l-24 -28 28 24 c25 23 32 31 24 31 -2 0 -14 -12 -28 -27z"/>
<path d="M1397 2633 c18 -2 50 -2 70 0 21 2 7 4 -32 4 -38 0 -55 -2 -38 -4z"/>
<path d="M2054 2413 l-82 -4 -116 -183 c-64 -101 -116 -192 -116 -202 0 -17
237 -406 407 -669 l58 -90 340 0 340 0 0 25 c-1 15 -102 186 -249 420 -217
345 -420 667 -436 692 -9 11 -54 15 -146 11z"/>
<path d="M1166 2167 c-19 -25 -287 -449 -518 -819 -54 -87 -70 -83 318 -86
l341 -2 117 180 c83 128 116 188 114 205 -5 36 -310 542 -331 548 -11 4 -25
-5 -41 -26z"/>
<path d="M9499 1981 c-54 -54 -30 -150 41 -166 49 -11 89 3 111 38 45 74 2
157 -81 157 -33 0 -48 -6 -71 -29z"/>
</g>
</svg>
