<?xml version="1.0" standalone="no"?>
<!DOCTYPE svg PUBLIC "-//W3C//DTD SVG 20010904//EN"
 "http://www.w3.org/TR/2001/REC-SVG-20010904/DTD/svg10.dtd">
<svg version="1.0" xmlns="http://www.w3.org/2000/svg"
 width="1024.000000pt" height="512.000000pt" viewBox="0 0 1024.000000 512.000000"
 preserveAspectRatio="xMidYMid meet">

<g transform="translate(0.000000,512.000000) scale(0.100000,-0.100000)"
fill="#000000" stroke="none">
<path d="M2223 3783 c-16 -3 -52 -53 -127 -171 -57 -92 -110 -179 -116 -194
-12 -25 -5 -40 112 -240 69 -117 140 -239 158 -271 36 -65 54 -77 77 -55 8 8
70 105 138 214 68 109 184 295 257 413 191 306 175 278 160 293 -10 10 -84 13
-325 15 -172 0 -322 -1 -334 -4z"/>
<path d="M8028 3460 c-99 -53 -108 -196 -17 -261 101 -72 239 0 239 125 0 66
-27 111 -83 136 -53 25 -92 24 -139 0z"/>
<path d="M3536 2980 c-118 -19 -180 -81 -211 -212 -13 -57 -15 -158 -13 -700
l3 -633 96 -3 c71 -2 99 1 107 11 7 8 13 76 14 183 l3 169 230 6 c244 6 284
13 368 62 57 34 139 122 171 185 48 95 58 166 54 387 -4 171 -8 210 -26 266
-41 126 -124 211 -251 261 -50 19 -77 22 -271 24 -118 1 -241 -1 -274 -6z
m503 -230 c32 -18 52 -39 70 -75 26 -49 26 -54 26 -265 l0 -216 -30 -59 c-25
-47 -40 -63 -85 -89 l-55 -31 -176 0 c-192 0 -219 6 -245 57 -20 38 -21 583
-1 631 29 68 61 76 287 74 156 -2 168 -3 209 -27z"/>
<path d="M5009 2980 c-173 -22 -308 -130 -363 -290 -25 -70 -35 -390 -16 -499
35 -210 179 -353 383 -380 92 -13 536 -14 555 -3 9 6 12 34 10 103 l-3 94
-280 5 c-276 5 -281 5 -330 30 -66 34 -111 100 -120 175 -12 93 -48 86 402 79
265 -4 403 -2 413 5 12 8 14 37 11 162 -1 87 -9 174 -17 205 -42 163 -158 275
-321 309 -71 15 -227 18 -324 5z m328 -228 c60 -31 92 -78 104 -153 5 -34 8
-68 5 -76 -4 -10 -63 -13 -306 -13 l-300 0 0 33 c0 58 28 131 62 164 66 61
112 73 283 69 90 -2 118 -6 152 -24z"/>
<path d="M6311 2979 c-50 -10 -126 -52 -144 -80 -18 -29 -27 -23 -27 19 0 21
-5 43 -12 50 -16 16 -180 16 -196 0 -15 -15 -17 -1103 -2 -1143 10 -26 10 -26
107 -23 l98 3 7 365 c8 392 13 433 64 510 42 62 93 84 214 90 l105 5 3 101 c3
98 2 102 -20 108 -32 8 -144 6 -197 -5z"/>
<path d="M6680 2965 c0 -13 53 -163 327 -920 42 -115 83 -218 91 -227 22 -26
232 -26 254 0 8 9 65 154 126 322 61 168 154 419 206 559 52 140 92 261 89
268 -4 11 -30 13 -117 11 l-111 -3 -47 -135 c-152 -438 -267 -755 -274 -753
-6 1 -112 300 -260 733 -19 58 -40 117 -46 133 l-10 27 -114 0 c-94 0 -114 -3
-114 -15z"/>
<path d="M7997 2974 c-4 -4 -7 -264 -7 -579 0 -431 3 -574 12 -583 14 -14 175
-17 196 -4 10 7 12 131 10 588 l-3 579 -101 3 c-55 1 -103 0 -107 -4z"/>
<path d="M8607 2973 c-4 -3 -7 -48 -7 -99 0 -75 3 -93 16 -98 9 -3 126 -6 260
-6 268 0 279 -2 327 -60 29 -34 47 -87 47 -137 0 -18 -1 -33 -3 -33 -1 0 -20
9 -42 20 -35 18 -59 20 -225 20 -136 0 -202 -4 -245 -15 -107 -28 -197 -102
-247 -204 -20 -41 -23 -61 -23 -176 0 -127 1 -132 33 -197 37 -76 82 -120 162
-157 55 -26 57 -26 305 -26 179 0 263 4 296 13 71 21 137 77 173 147 l31 60 3
303 c3 251 0 313 -13 364 -35 139 -134 235 -280 274 -53 14 -555 21 -568 7z
m583 -628 c45 -23 60 -62 60 -152 0 -94 -19 -140 -70 -165 -52 -26 -368 -26
-420 0 -55 27 -80 73 -80 149 0 74 19 124 59 152 38 27 49 29 244 30 141 1
184 -2 207 -14z"/>
<path d="M2043 2391 c-39 -3 -73 -8 -76 -11 -9 -10 -201 -316 -214 -342 -17
-34 -32 -4 179 -348 221 -359 266 -427 285 -434 8 -3 158 -6 333 -6 266 0 320
2 330 15 10 12 -12 53 -123 227 -74 117 -225 359 -337 538 -111 179 -210 333
-219 343 -21 22 -64 27 -158 18z"/>
<path d="M1178 2163 c-14 -16 -508 -797 -547 -866 -15 -26 -15 -29 4 -43 17
-13 64 -15 335 -12 173 3 322 8 330 11 16 8 229 337 237 365 5 19 -298 530
-326 550 -15 10 -20 9 -33 -5z"/>
<path d="M9505 1967 c-18 -15 -28 -36 -32 -64 -5 -37 -2 -45 25 -73 53 -52
134 -38 162 29 38 92 -80 173 -155 108z"/>
</g>
</svg>
