<?xml version="1.0" standalone="no"?>
<!DOCTYPE svg PUBLIC "-//W3C//DTD SVG 20010904//EN"
 "http://www.w3.org/TR/2001/REC-SVG-20010904/DTD/svg10.dtd">
<svg version="1.0" xmlns="http://www.w3.org/2000/svg"
 width="1024.000000pt" height="1024.000000pt" viewBox="0 0 1024.000000 1024.000000"
 preserveAspectRatio="xMidYMid meet">

<g transform="translate(0.000000,1024.000000) scale(0.100000,-0.100000)"
fill="#000000" stroke="none">
<path d="M2215 6391 c-23 -10 -245 -360 -245 -387 0 -10 53 -108 119 -218 65
-111 136 -231 157 -268 36 -65 56 -84 74 -73 19 12 570 901 570 920 0 8 -9 19
-19 25 -23 12 -626 13 -656 1z"/>
<path d="M636 6382 c-3 -5 8 -6 25 -4 16 2 29 6 29 8 0 8 -49 4 -54 -4z"/>
<path d="M778 6383 c34 -2 90 -2 125 0 34 2 6 3 -63 3 -69 0 -97 -1 -62 -3z"/>
<path d="M1053 6383 c9 -2 23 -2 30 0 6 3 -1 5 -18 5 -16 0 -22 -2 -12 -5z"/>
<path d="M1153 6383 c20 -2 54 -2 75 0 20 2 3 4 -38 4 -41 0 -58 -2 -37 -4z"/>
<path d="M1280 6386 c0 -2 8 -10 18 -17 15 -13 16 -12 3 4 -13 16 -21 21 -21
13z"/>
<path d="M1350 6281 c0 -6 4 -13 10 -16 6 -3 7 1 4 9 -7 18 -14 21 -14 7z"/>
<path d="M1450 6120 c6 -11 13 -20 16 -20 2 0 0 9 -6 20 -6 11 -13 20 -16 20
-2 0 0 -9 6 -20z"/>
<path d="M8032 6073 c-68 -33 -104 -113 -83 -185 33 -108 164 -149 254 -78 34
27 61 100 53 142 -20 107 -131 167 -224 121z"/>
<path d="M1500 6040 c6 -11 13 -20 16 -20 2 0 0 9 -6 20 -6 11 -13 20 -16 20
-2 0 0 -9 6 -20z"/>
<path d="M1751 5643 c7 -12 15 -20 18 -17 3 2 -3 12 -13 22 -17 16 -18 16 -5
-5z"/>
<path d="M3532 5589 c-106 -18 -155 -58 -191 -154 -36 -95 -41 -199 -41 -797
0 -511 2 -578 16 -592 20 -20 171 -23 197 -3 14 10 17 37 19 182 l3 170 225 6
c170 5 239 11 280 24 144 44 258 167 302 324 24 86 26 421 3 519 -36 151 -124
254 -262 304 -51 19 -83 21 -278 24 -121 1 -244 -1 -273 -7z m463 -220 c57
-16 95 -46 116 -93 16 -36 19 -68 19 -261 0 -243 -6 -271 -66 -327 -54 -51
-96 -61 -258 -66 -165 -5 -208 3 -247 44 l-24 26 0 303 c0 292 1 305 21 332
11 15 36 33 55 40 44 15 330 17 384 2z"/>
<path d="M5000 5589 c-170 -25 -287 -118 -352 -280 -20 -48 -23 -77 -26 -264
-4 -236 5 -300 58 -406 42 -82 106 -143 194 -185 63 -30 89 -36 197 -46 157
-13 487 -4 505 14 10 10 11 36 6 103 l-7 90 -280 5 c-267 5 -282 6 -327 28
-25 13 -59 39 -74 59 -29 38 -54 115 -54 165 l0 28 414 0 c368 0 415 2 420 16
10 25 7 191 -4 284 -26 208 -156 353 -349 390 -62 12 -240 11 -321 -1z m339
-234 c19 -11 48 -37 65 -58 26 -33 31 -48 34 -108 l4 -69 -301 0 -301 0 0 23
c1 42 21 112 42 143 51 75 112 94 293 91 110 -2 135 -5 164 -22z"/>
<path d="M6298 5586 c-52 -14 -126 -59 -135 -81 -11 -29 -22 -14 -25 33 l-3
47 -99 3 c-73 2 -102 -1 -108 -10 -4 -7 -8 -270 -8 -585 0 -661 -14 -593 119
-593 59 0 84 4 95 16 14 13 16 61 16 369 0 316 2 359 19 413 39 128 103 172
248 172 119 0 123 4 123 115 0 110 -5 115 -113 114 -45 0 -103 -6 -129 -13z"/>
<path d="M1730 5581 c0 -6 4 -13 10 -16 6 -3 7 1 4 9 -7 18 -14 21 -14 7z"/>
<path d="M6680 5570 c0 -11 66 -201 146 -422 80 -222 170 -473 201 -558 31
-87 64 -163 75 -172 16 -15 39 -18 117 -18 56 0 106 5 120 13 19 10 40 55 106
237 45 124 139 380 209 569 70 189 125 350 122 358 -5 11 -29 13 -118 11
l-113 -3 -92 -260 c-51 -143 -120 -341 -154 -440 -34 -99 -65 -184 -69 -188
-4 -5 -17 18 -28 50 -74 214 -282 811 -287 826 -6 15 -22 17 -121 17 -107 0
-114 -1 -114 -20z"/>
<path d="M7997 5583 c-4 -3 -7 -266 -7 -584 l0 -578 22 -12 c23 -12 182 -8
195 5 9 9 16 1118 8 1154 -5 21 -10 22 -109 22 -56 0 -106 -3 -109 -7z"/>
<path d="M8607 5583 c-4 -3 -7 -51 -7 -105 0 -87 2 -98 18 -98 9 -1 112 0 228
0 119 0 233 -4 260 -10 51 -12 96 -46 119 -91 17 -31 32 -133 19 -127 -83 40
-82 40 -293 36 -242 -5 -284 -16 -376 -99 -94 -86 -128 -194 -115 -359 15
-184 125 -298 310 -322 108 -14 444 -4 496 15 92 34 156 99 190 192 15 41 18
91 22 281 4 253 -5 370 -38 457 -25 66 -92 144 -154 181 -83 49 -138 56 -416
56 -141 0 -260 -3 -263 -7z m596 -643 c36 -29 50 -80 45 -165 -6 -90 -30 -129
-90 -146 -25 -6 -108 -9 -214 -7 -193 3 -210 9 -247 79 -26 50 -20 153 12 198
39 55 64 60 277 61 177 0 193 -2 217 -20z"/>
<path d="M1686 5485 c-9 -26 -7 -32 5 -12 6 10 9 21 6 23 -2 3 -7 -2 -11 -11z"/>
<path d="M1604 5348 c-4 -7 -14 -24 -22 -38 -14 -24 -13 -24 3 -5 20 24 37 55
31 55 -3 0 -8 -6 -12 -12z"/>
<path d="M1539 5243 c-13 -16 -12 -17 4 -4 9 7 17 15 17 17 0 8 -8 3 -21 -13z"/>
<path d="M1408 5223 c6 -2 18 -2 25 0 6 3 1 5 -13 5 -14 0 -19 -2 -12 -5z"/>
<path d="M2003 5003 c-28 -4 -41 -20 -149 -190 -108 -172 -116 -188 -107 -214
10 -25 76 -133 357 -584 44 -71 88 -137 98 -147 17 -17 42 -18 345 -16 291 3
327 5 336 20 9 13 -13 53 -108 205 -65 103 -217 346 -337 538 -121 193 -230
360 -244 373 -21 19 -35 22 -92 20 -37 0 -81 -3 -99 -5z"/>
<path d="M1166 4758 c-13 -18 -123 -190 -244 -383 -120 -192 -238 -380 -261
-417 -69 -110 -89 -103 300 -106 310 -2 337 -1 352 15 34 38 227 348 227 365
0 15 -292 513 -320 546 -17 19 -27 15 -54 -20z"/>
<path d="M9496 4569 c-44 -52 -33 -125 24 -154 75 -39 150 9 150 96 0 48 -47
89 -103 89 -38 0 -49 -5 -71 -31z"/>
</g>
</svg>
